<?xml version="1.0" encoding="utf-8"?>
<svg width="97px" height="97px" viewBox="0 0 97 97" version="1.1" xmlns:xlink="http://www.w3.org/1999/xlink" xmlns="http://www.w3.org/2000/svg">
  <desc>Created with Lunacy</desc>
  <defs>
    <linearGradient x1="0.130124822" y1="0.06605812" x2="1" y2="1.20299673" id="gradient_1">
      <stop offset="0" stop-color="#98C957" />
      <stop offset="1" stop-color="#B7EF6E" />
    </linearGradient>
  </defs>
  <g id="Group">
    <path d="M48.5 97C75.2858 97 97 75.2858 97 48.5C97 21.7142 75.2858 0 48.5 0C21.7142 0 0 21.7142 0 48.5C0 75.2858 21.7142 97 48.5 97Z" id="Oval-Copy-2" fill="url(#gradient_1)" stroke="none" />
    <g id="bx-globe-alt" transform="translate(32 29)">
      <path d="M17.1053 32.0808L17.1053 34.3809L13.3339 34.3809L13.3339 38.1858L24.6482 38.1858L24.6482 34.3809L20.8767 34.3809L20.8767 30.8709C23.0368 29.9281 25.0014 28.583 26.6678 26.9062C34.0183 19.4905 34.0183 7.41951 26.6678 0L24.0014 2.69005C29.8829 8.62566 29.8829 18.2805 24.0014 24.2142C18.1198 30.146 8.54794 30.1499 2.6664 24.2142L0 26.9043C3.53448 30.4737 8.33285 32.4756 13.3339 32.467C14.6007 32.4667 15.8643 32.3373 17.1053 32.0808Z" transform="translate(0.8089714 0.8142439)" id="Path" fill="#FFFFFF" stroke="none" />
      <path d="M11.3143 22.8293C17.5541 22.8293 22.6286 17.7098 22.6286 11.4146C22.6286 5.11946 17.5541 0 11.3143 0C5.07446 0 0 5.11946 0 11.4146C0 17.7098 5.07446 22.8293 11.3143 22.8293ZM11.3143 3.80488C15.4742 3.80488 18.8571 7.21785 18.8571 11.4146C18.8571 15.6114 15.4742 19.0244 11.3143 19.0244C7.1544 19.0244 3.77143 15.6114 3.77143 11.4146C3.77143 7.21785 7.1544 3.80488 11.3143 3.80488Z" transform="translate(2.828571 2.853658)" id="Shape" fill="#FFFFFF" stroke="none" />
    </g>
  </g>
</svg>