<?xml version="1.0" encoding="utf-8"?>
<svg width="874px" height="741px" viewBox="0 0 874 741" version="1.1" xmlns:xlink="http://www.w3.org/1999/xlink" xmlns="http://www.w3.org/2000/svg">
  <desc>Created with Lunacy</desc>
  <defs>
    <linearGradient x1="0.353108227" y1="0.744021952" x2="0.353108227" y2="0" id="gradient_1">
      <stop offset="0" stop-color="#FFFFFF" stop-opacity="0" />
      <stop offset="1" stop-color="#FF8365" />
    </linearGradient>
    <linearGradient x1="0" y1="0" x2="1.22416723" y2="1.24302018" id="gradient_2">
      <stop offset="0" stop-color="#FF8265" />
      <stop offset="1" stop-color="#FAAC7D" />
    </linearGradient>
    <linearGradient x1="0.686892331" y1="0.8073208" x2="0.712540567" y2="0" id="gradient_3">
      <stop offset="0" stop-color="#FFFFFF" stop-opacity="0" />
      <stop offset="1" stop-color="#42077F" />
    </linearGradient>
    <linearGradient x1="0" y1="0" x2="1.50170338" y2="1.74566412" id="gradient_4">
      <stop offset="0" stop-color="#39007D" />
      <stop offset="1" stop-color="#E67E99" />
    </linearGradient>
    <filter filterUnits="userSpaceOnUse" color-interpolation-filters="sRGB" id="filter_1">
      <feFlood flood-opacity="0" result="BackgroundImageFix" />
      <feColorMatrix in="SourceAlpha" type="matrix" values="0 0 0 0 0 0 0 0 0 0 0 0 0 0 0 0 0 0 127 0" />
      <feOffset dx="0" dy="90" />
      <feGaussianBlur stdDeviation="62" />
      <feColorMatrix type="matrix" values="0 0 0 0 0 0 0 0 0 0 0 0 0 0 0 0 0 0 0.07058824 0" />
      <feBlend mode="normal" in2="BackgroundImageFix" result="effect0_dropShadow" />
      <feBlend mode="normal" in="SourceGraphic" in2="effect0_dropShadow" result="shape" />
    </filter>
    <filter filterUnits="userSpaceOnUse" color-interpolation-filters="sRGB" id="filter_2">
      <feFlood flood-opacity="0" result="BackgroundImageFix" />
      <feColorMatrix in="SourceAlpha" type="matrix" values="0 0 0 0 0 0 0 0 0 0 0 0 0 0 0 0 0 0 127 0" />
      <feOffset dx="0" dy="29" />
      <feGaussianBlur stdDeviation="30.5" />
      <feColorMatrix type="matrix" values="0 0 0 0 0 0 0 0 0 0 0 0 0 0 0 0 0 0 0.1882353 0" />
      <feBlend mode="normal" in2="BackgroundImageFix" result="effect0_dropShadow" />
      <feBlend mode="normal" in="SourceGraphic" in2="effect0_dropShadow" result="shape" />
    </filter>
    <filter filterUnits="userSpaceOnUse" color-interpolation-filters="sRGB" id="filter_3">
      <feFlood flood-opacity="0" result="BackgroundImageFix" />
      <feColorMatrix in="SourceAlpha" type="matrix" values="0 0 0 0 0 0 0 0 0 0 0 0 0 0 0 0 0 0 127 0" />
      <feOffset dx="4" dy="13" />
      <feGaussianBlur stdDeviation="6.5" />
      <feColorMatrix type="matrix" values="0 0 0 0 0.6392157 0 0 0 0 0.04705882 0 0 0 0 0.1176471 0 0 0 0.1019608 0" />
      <feBlend mode="normal" in2="BackgroundImageFix" result="effect0_dropShadow" />
      <feBlend mode="normal" in="SourceGraphic" in2="effect0_dropShadow" result="shape" />
    </filter>
  </defs>
  <g id="Group" transform="translate(124 34)">
    <g filter="url(#filter_1)">
      <path d="M0 0L501.93 0L501.93 368.42L0 368.42L0 0Z" id="Rectangle-7" fill="#FFFFFF" stroke="none" />
    </g>
    <g id="Group-7" transform="translate(43.94001 28.73001)">
      <g id="Group-6" transform="translate(55.85112 297.8727)">
        <g id="Sat">
          <path d="M0.776423 12.7283L0.776423 11.4578Q0.994591 11.6503 1.29939 11.8043Q1.60418 11.9583 1.94106 12.0642Q2.27794 12.1701 2.61802 12.2278Q2.95811 12.2856 3.24686 12.2856Q4.24145 12.2856 4.73233 11.9166Q5.22321 11.5477 5.22321 10.8547Q5.22321 10.4825 5.05958 10.2066Q4.89596 9.93064 4.6072 9.70285Q4.31845 9.47506 3.92382 9.26651Q3.5292 9.05797 3.07361 8.82697Q2.59235 8.58313 2.17527 8.33288Q1.75818 8.08263 1.45018 7.78104Q1.14218 7.47946 0.965716 7.09766Q0.789256 6.71587 0.789257 6.20253Q0.789256 5.57369 1.06518 5.10848Q1.34109 4.64327 1.79026 4.34168Q2.23943 4.0401 2.81373 3.89251Q3.38803 3.74493 3.98478 3.74493Q5.34513 3.74493 5.96755 4.07218L5.96755 5.28494Q5.15263 4.72027 3.8757 4.72027Q3.52278 4.72027 3.16986 4.79406Q2.81694 4.86785 2.54102 5.03469Q2.2651 5.20152 2.09185 5.46461Q1.9186 5.72769 1.9186 6.10628Q1.9186 6.4592 2.05014 6.71587Q2.18168 6.97254 2.43835 7.18429Q2.69502 7.39604 3.06398 7.59496Q3.43294 7.79388 3.9142 8.03129Q4.40829 8.27513 4.85104 8.54463Q5.29379 8.81413 5.62746 9.14139Q5.96113 9.46864 6.15684 9.86648Q6.35255 10.2643 6.35255 10.7776Q6.35255 11.4578 6.08626 11.9295Q5.81996 12.4011 5.36759 12.6962Q4.91521 12.9914 4.32487 13.123Q3.73453 13.2545 3.08003 13.2545Q2.86186 13.2545 2.54102 13.2192Q2.22018 13.1839 1.88652 13.1165Q1.55285 13.0492 1.25447 12.9497Q0.956091 12.8503 0.776423 12.7283ZM16.799 13.2417Q17.4086 13.2417 17.7807 13.0363L17.7807 12.138Q17.492 12.3562 17.0941 12.3562Q16.5744 12.3562 16.3498 12.0738Q16.1252 11.7915 16.1252 11.1306L16.1252 7.42812L17.7807 7.42812L17.7807 6.52978L16.1252 6.52978L16.1252 4.58552L15.0729 4.9256L15.0729 6.52978L13.9435 6.52978L13.9435 7.42812L15.0729 7.42812L15.0729 11.3167Q15.0729 13.2417 16.799 13.2417ZM12.75 13.1005L11.6977 13.1005L11.6977 12.0738L11.672 12.0738Q10.9854 13.2545 9.65075 13.2545Q8.66899 13.2545 8.11394 12.7347Q7.5589 12.215 7.5589 11.3552Q7.5589 9.51356 9.72775 9.21197L11.6977 8.93605Q11.6977 7.26129 10.3438 7.26129Q9.15666 7.26129 8.20057 8.06979L8.20057 6.99179Q9.16949 6.37578 10.4336 6.37578Q12.75 6.37578 12.75 8.82697L12.75 13.1005ZM11.6977 9.77664L10.1128 9.99481Q9.38124 10.0975 9.00907 10.3574Q8.6369 10.6172 8.6369 11.2782Q8.6369 11.7594 8.9802 12.0642Q9.32349 12.369 9.89458 12.369Q10.6774 12.369 11.1876 11.8204Q11.6977 11.2717 11.6977 10.4311L11.6977 9.77664Z" />
        </g>
        <g id="Sun" fill="#FF6E81" transform="translate(44.89992 0)">
          <path d="M0.776423 12.7283L0.776423 11.4578Q0.994591 11.6503 1.29939 11.8043Q1.60418 11.9583 1.94106 12.0642Q2.27794 12.1701 2.61802 12.2278Q2.95811 12.2856 3.24686 12.2856Q4.24145 12.2856 4.73233 11.9166Q5.22321 11.5477 5.22321 10.8547Q5.22321 10.4825 5.05958 10.2066Q4.89596 9.93064 4.6072 9.70285Q4.31845 9.47506 3.92382 9.26651Q3.5292 9.05797 3.07361 8.82697Q2.59235 8.58313 2.17527 8.33288Q1.75818 8.08263 1.45018 7.78104Q1.14218 7.47946 0.965716 7.09766Q0.789256 6.71587 0.789257 6.20253Q0.789256 5.57369 1.06518 5.10848Q1.34109 4.64327 1.79026 4.34168Q2.23943 4.0401 2.81373 3.89251Q3.38803 3.74493 3.98478 3.74493Q5.34513 3.74493 5.96755 4.07218L5.96755 5.28494Q5.15263 4.72027 3.8757 4.72027Q3.52278 4.72027 3.16986 4.79406Q2.81694 4.86785 2.54102 5.03469Q2.2651 5.20152 2.09185 5.46461Q1.9186 5.72769 1.9186 6.10628Q1.9186 6.4592 2.05014 6.71587Q2.18168 6.97254 2.43835 7.18429Q2.69502 7.39604 3.06398 7.59496Q3.43294 7.79388 3.9142 8.03129Q4.40829 8.27513 4.85104 8.54463Q5.29379 8.81413 5.62746 9.14139Q5.96113 9.46864 6.15684 9.86648Q6.35255 10.2643 6.35255 10.7776Q6.35255 11.4578 6.08626 11.9295Q5.81996 12.4011 5.36759 12.6962Q4.91521 12.9914 4.32487 13.123Q3.73453 13.2545 3.08003 13.2545Q2.86186 13.2545 2.54102 13.2192Q2.22018 13.1839 1.88652 13.1165Q1.55285 13.0492 1.25447 12.9497Q0.956091 12.8503 0.776423 12.7283ZM19.8854 13.1005L20.9378 13.1005L20.9378 9.08364Q20.9378 7.76821 20.3667 7.07199Q19.7956 6.37578 18.7176 6.37578Q17.3059 6.37578 16.5616 7.62062L16.5359 7.62062L16.5359 6.52978L15.4835 6.52978L15.4835 13.1005L16.5359 13.1005L16.5359 9.35314Q16.5359 8.44838 17.0524 7.85483Q17.569 7.26129 18.3582 7.26129Q19.8854 7.26129 19.8854 9.35314L19.8854 13.1005ZM13.3596 13.1005L12.3073 13.1005L12.3073 12.061L12.2816 12.061Q11.6271 13.2545 10.2539 13.2545Q7.9054 13.2545 7.9054 10.4568L7.9054 6.52978L8.95132 6.52978L8.95132 10.29Q8.95132 12.369 10.5427 12.369Q11.3127 12.369 11.81 11.8011Q12.3073 11.2332 12.3073 10.3156L12.3073 6.52978L13.3596 6.52978L13.3596 13.1005Z" />
        </g>
        <g id="Mon" fill="#161A2E" transform="translate(90.89497 0)">
          <path d="M10.5876 13.1005L9.516 13.1005L9.516 6.92762Q9.516 6.19611 9.60583 5.13735L9.58016 5.13735Q9.42616 5.75978 9.30424 6.02928L6.16005 13.1005L5.63388 13.1005L2.4961 6.08061Q2.36135 5.77261 2.22018 5.13735L2.19452 5.13735Q2.24585 5.68919 2.24585 6.94045L2.24585 13.1005L1.20634 13.1005L1.20634 3.89893L2.63085 3.89893L5.45421 10.3156Q5.78146 11.0536 5.87772 11.4193L5.91622 11.4193Q6.19213 10.6621 6.35897 10.29L9.24008 3.89893L10.5876 3.89893L10.5876 13.1005ZM15.6119 13.2545Q14.1553 13.2545 13.2858 12.3337Q12.4164 11.4129 12.4164 9.89214Q12.4164 8.23663 13.3211 7.3062Q14.2259 6.37578 15.7659 6.37578Q17.2353 6.37578 18.0599 7.28054Q18.8844 8.1853 18.8844 9.78947Q18.8844 11.3616 17.9957 12.308Q17.107 13.2545 15.6119 13.2545ZM24.9675 13.1005L26.0198 13.1005L26.0198 9.08364Q26.0198 7.76821 25.4487 7.07199Q24.8776 6.37578 23.7996 6.37578Q22.3879 6.37578 21.6436 7.62062L21.6179 7.62062L21.6179 6.52978L20.5656 6.52978L20.5656 13.1005L21.6179 13.1005L21.6179 9.35314Q21.6179 8.44838 22.1345 7.85483Q22.651 7.26129 23.4403 7.26129Q24.9675 7.26129 24.9675 9.35314L24.9675 13.1005ZM15.6889 7.26129Q14.675 7.26129 14.0847 7.95108Q13.4944 8.64088 13.4944 9.85364Q13.4944 11.0215 14.0911 11.6952Q14.6879 12.369 15.6889 12.369Q16.7091 12.369 17.2578 11.7081Q17.8064 11.0472 17.8064 9.82798Q17.8064 8.59596 17.2578 7.92863Q16.7091 7.26129 15.6889 7.26129Z" />
        </g>
        <g id="Tue" transform="translate(140.1754 0)">
          <path d="M6.64772 4.87427L3.9912 4.87427L3.9912 13.1005L2.91319 13.1005L2.91319 4.87427L0.263085 4.87427L0.263085 3.89893L6.64772 3.89893L6.64772 4.87427ZM16.029 10.0782L20.6683 10.0782L20.6683 9.52639Q20.6683 8.04413 19.9624 7.20995Q19.2566 6.37578 17.9668 6.37578Q16.6771 6.37578 15.8076 7.3415Q14.9381 8.30721 14.9381 9.84081Q14.9381 11.4642 15.7338 12.3594Q16.5295 13.2545 17.9219 13.2545Q19.3464 13.2545 20.2127 12.6257L20.2127 11.6375Q19.2822 12.369 18.1721 12.369Q17.184 12.369 16.6193 11.7722Q16.0546 11.1755 16.029 10.0782ZM13.2634 13.1005L12.211 13.1005L12.211 12.061L12.1854 12.061Q11.5308 13.2545 10.1577 13.2545Q7.80915 13.2545 7.80915 10.4568L7.80915 6.52978L8.85507 6.52978L8.85507 10.29Q8.85507 12.369 10.4464 12.369Q11.2164 12.369 11.7137 11.8011Q12.211 11.2332 12.211 10.3156L12.211 6.52978L13.2634 6.52978L13.2634 13.1005ZM19.1507 7.76821Q19.5838 8.27513 19.5902 9.1863L16.0418 9.1863Q16.1637 8.32646 16.6835 7.79388Q17.2032 7.26129 17.9476 7.26129Q18.7176 7.26129 19.1507 7.76821Z" />
        </g>
        <g id="Wed" transform="translate(183.9802 0)">
          <path d="M24.7685 13.1005L25.8209 13.1005L25.8209 3.37276L24.7685 3.37276L24.7685 7.44096L24.7429 7.44096Q24.1269 6.37578 22.7729 6.37578Q21.4062 6.37578 20.5848 7.35754Q19.7635 8.3393 19.7635 9.96914Q19.7635 11.4899 20.5046 12.3722Q21.2458 13.2545 22.4842 13.2545Q24.0114 13.2545 24.7429 11.984L24.7685 11.984L24.7685 13.1005ZM12.1148 3.89893L9.516 13.1005L8.2519 13.1005L6.35897 6.37578Q6.23705 5.94586 6.21138 5.43894L6.18572 5.43894Q6.14722 5.91378 6.01888 6.36295L4.11312 13.1005L2.86186 13.1005L0.166835 3.89893L1.35393 3.89893L3.31103 10.9573Q3.43294 11.4001 3.46503 11.8813L3.49711 11.8813Q3.5292 11.5412 3.69603 10.9573L5.73013 3.89893L6.76322 3.89893L8.71391 11.0087Q8.81657 11.3744 8.86791 11.8685L8.89357 11.8685Q8.91924 11.5348 9.06682 10.983L10.9469 3.89893L12.1148 3.89893ZM18.6213 10.0782L13.982 10.0782Q14.0077 11.1755 14.5724 11.7722Q15.137 12.369 16.1252 12.369Q17.2353 12.369 18.1657 11.6375L18.1657 12.6257Q17.2995 13.2545 15.875 13.2545Q14.4825 13.2545 13.6869 12.3594Q12.8912 11.4642 12.8912 9.84081Q12.8912 8.30721 13.7607 7.3415Q14.6301 6.37578 15.9199 6.37578Q17.2096 6.37578 17.9155 7.20995Q18.6213 8.04413 18.6213 9.52639L18.6213 10.0782ZM17.5433 9.1863Q17.5369 8.27513 17.1038 7.76821Q16.6706 7.26129 15.9006 7.26129Q15.1563 7.26129 14.6365 7.79388Q14.1168 8.32646 13.9949 9.1863L17.5433 9.1863ZM24.7685 9.16064L24.7685 10.1296Q24.7685 11.0985 24.2199 11.7337Q23.6713 12.369 22.7922 12.369Q21.9003 12.369 21.3709 11.7113Q20.8415 11.0536 20.8415 9.91781Q20.8415 8.67297 21.3933 7.96713Q21.9452 7.26129 22.9077 7.26129Q23.7162 7.26129 24.2424 7.81313Q24.7685 8.36496 24.7685 9.16064Z" />
        </g>
        <g id="Thu" transform="translate(233.2606 0)">
          <path d="M13.4045 13.1005L12.3522 13.1005L12.3522 9.31464Q12.3522 7.26129 10.825 7.26129Q10.055 7.26129 9.52883 7.85483Q9.00266 8.44838 9.00266 9.37881L9.00266 13.1005L7.95032 13.1005L7.95032 3.37276L9.00266 3.37276L9.00266 7.62062L9.02832 7.62062Q9.7855 6.37578 11.1843 6.37578Q13.4045 6.37578 13.4045 9.05155L13.4045 13.1005ZM6.64772 4.87427L3.9912 4.87427L3.9912 13.1005L2.91319 13.1005L2.91319 4.87427L0.263085 4.87427L0.263085 3.89893L6.64772 3.89893L6.64772 4.87427ZM19.648 13.1005L20.7003 13.1005L20.7003 6.52978L19.648 6.52978L19.648 10.3156Q19.648 11.2332 19.1507 11.8011Q18.6534 12.369 17.8834 12.369Q16.2921 12.369 16.2921 10.29L16.2921 6.52978L15.2461 6.52978L15.2461 10.4568Q15.2461 13.2545 17.5946 13.2545Q18.9678 13.2545 19.6223 12.061L19.648 12.061L19.648 13.1005Z" />
        </g>
        <g id="Fri" transform="translate(284.7312 0)">
          <path d="M12.1083 4.66893Q12.3073 4.86143 12.5896 4.86143Q12.8784 4.86143 13.0805 4.66252Q13.2826 4.4636 13.2826 4.18126Q13.2826 3.88609 13.0805 3.69038Q12.8784 3.49467 12.5896 3.49467Q12.3073 3.49467 12.1083 3.69038Q11.9094 3.88609 11.9094 4.18126Q11.9094 4.47643 12.1083 4.66893ZM5.87772 4.87427L2.28435 4.87427L2.28435 8.05696L5.60821 8.05696L5.60821 9.02588L2.28435 9.02588L2.28435 13.1005L1.20634 13.1005L1.20634 3.89893L5.87772 3.89893L5.87772 4.87427ZM10.9084 7.59496Q10.6325 7.38321 10.1128 7.3832Q9.43899 7.38321 8.98662 8.01846Q8.53424 8.65372 8.53424 9.75097L8.53424 13.1005L7.48189 13.1005L7.48189 6.52978L8.53424 6.52978L8.53424 7.88371L8.5599 7.88371Q8.78449 7.1907 9.24649 6.80249Q9.7085 6.41428 10.2796 6.41428Q10.6903 6.41428 10.9084 6.50411L10.9084 7.59496ZM12.0506 13.1005L13.1029 13.1005L13.1029 6.52978L12.0506 6.52978L12.0506 13.1005Z" />
        </g>
      </g>
      <g id="Group" transform="translate(41.61456 5.4756)">
        <path d="M0.54756 1.64268L401.362 1.64268" transform="translate(0 275.9702)" id="Line" fill="none" stroke="#9BA2B6" stroke-opacity="0.2" stroke-width="1.69000018" stroke-linecap="square" />
        <path d="M0.54756 1.64268L380.527 1.64268" transform="translate(0 229.9752)" id="Line-3" fill="none" stroke="#9BA2B6" stroke-opacity="0.2" stroke-width="1.69000018" stroke-linecap="square" stroke-dasharray="5.4756 0" />
        <path d="M0.54756 1.64268L380.527 1.64268" transform="translate(0 183.9802)" id="Line-3-Copy" fill="none" stroke="#9BA2B6" stroke-opacity="0.2" stroke-width="1.69000018" stroke-linecap="square" stroke-dasharray="5.4756 0" />
        <path d="M0.54756 1.64268L380.527 1.64268" transform="translate(0 137.9851)" id="Line-3-Copy-2" fill="none" stroke="#9BA2B6" stroke-opacity="0.2" stroke-width="1.69000018" stroke-linecap="square" stroke-dasharray="5.4756 0" />
        <path d="M0.54756 1.64268L380.527 1.64268" transform="translate(0 91.99009)" id="Line-3-Copy-3" fill="none" stroke="#9BA2B6" stroke-opacity="0.2" stroke-width="1.69000018" stroke-linecap="square" stroke-dasharray="5.4756 0" />
        <path d="M0.54756 1.64268L380.527 1.64268" transform="translate(0 45.99504)" id="Line-3-Copy-4" fill="none" stroke="#9BA2B6" stroke-opacity="0.2" stroke-width="1.69000018" stroke-linecap="square" stroke-dasharray="5.4756 0" />
        <path d="M0.54756 1.64268L380.527 1.64268" id="Line-3-Copy-5" fill="none" stroke="#9BA2B6" stroke-opacity="0.2" stroke-width="1.69000018" stroke-linecap="square" stroke-dasharray="5.4756 0" />
        <path d="M0 219.048L54.4018 201.122L98.0909 9.60654e-14L142.505 171.275L187.391 182.79L235.883 201.122L279.084 219.048" transform="translate(23.28914 59.22107)" id="Path-2" fill="url(#gradient_1)" fill-opacity="0.47" stroke="#FF8365" stroke-width="1.69000018" />
        <g filter="url(#filter_2)">
          <path d="M4.38048 8.76096C6.79975 8.76096 8.76096 6.79975 8.76096 4.38048C8.76096 1.96121 6.79975 0 4.38048 0C1.96121 0 0 1.96121 0 4.38048C0 6.79975 1.96121 8.76096 4.38048 8.76096Z" transform="translate(18.61704 273.78)" id="Oval" fill="url(#gradient_2)" stroke="none" />
        </g>
        <g filter="url(#filter_2)">
          <path d="M4.38048 8.76097C6.79975 8.76097 8.76096 6.79976 8.76096 4.38049C8.76096 1.96121 6.79975 0 4.38048 0C1.96121 0 0 1.96121 0 4.38049C0 6.79976 1.96121 8.76097 4.38048 8.76097Z" transform="translate(73.37305 255.163)" id="Oval-Copy" fill="url(#gradient_2)" stroke="none" />
        </g>
        <g filter="url(#filter_2)">
          <path d="M4.38048 8.76096C6.79975 8.76096 8.76096 6.79975 8.76096 4.38048C8.76096 1.96121 6.79975 0 4.38048 0C1.96121 0 0 1.96121 0 4.38048C0 6.79975 1.96121 8.76096 4.38048 8.76096Z" transform="translate(117.1778 52.56577)" id="Oval-Copy-2" fill="url(#gradient_2)" stroke="none" />
        </g>
        <g filter="url(#filter_2)">
          <path d="M4.38048 8.76096C6.79975 8.76096 8.76096 6.79975 8.76096 4.38048C8.76096 1.96121 6.79975 0 4.38048 0C1.96121 0 0 1.96121 0 4.38048C0 6.79975 1.96121 8.76096 4.38048 8.76096Z" transform="translate(160.9827 225.5947)" id="Oval-Copy-3" fill="url(#gradient_2)" stroke="none" />
        </g>
        <g filter="url(#filter_2)">
          <path d="M4.38048 8.76096C6.79975 8.76096 8.76096 6.79975 8.76096 4.38048C8.76096 1.96121 6.79975 0 4.38048 0C1.96121 0 0 1.96121 0 4.38048C0 6.79975 1.96121 8.76096 4.38048 8.76096Z" transform="translate(205.8826 237.6411)" id="Oval-Copy-4" fill="url(#gradient_2)" stroke="none" />
        </g>
        <g filter="url(#filter_2)">
          <path d="M4.38049 8.76097C6.79976 8.76097 8.76097 6.79976 8.76097 4.38049C8.76097 1.96121 6.79976 0 4.38049 0C1.96121 0 0 1.96121 0 4.38049C0 6.79976 1.96121 8.76097 4.38049 8.76097Z" transform="translate(254.0679 255.163)" id="Oval-Copy-5" fill="url(#gradient_2)" stroke="none" />
        </g>
        <g filter="url(#filter_2)">
          <path d="M4.38048 8.76096C6.79975 8.76096 8.76096 6.79975 8.76096 4.38048C8.76096 1.96121 6.79975 0 4.38048 0C1.96121 0 0 1.96121 0 4.38048C0 6.79975 1.96121 8.76096 4.38048 8.76096Z" transform="translate(296.7775 272.6849)" id="Oval-Copy-6" fill="url(#gradient_2)" stroke="none" />
        </g>
      </g>
      <g id="Group-5">
        <g id="0" fill="#9BA2B6" transform="translate(17.52192 275.9702)">
          <path d="M6.54505 8.46121Q6.54505 9.61622 6.33651 10.5081Q6.12797 11.4001 5.73334 12.0129Q5.33871 12.6257 4.76441 12.9433Q4.19012 13.2609 3.45861 13.2609Q2.76561 13.2609 2.22339 12.9561Q1.68118 12.6513 1.30901 12.0674Q0.936841 11.4835 0.744339 10.6333Q0.551838 9.78306 0.551838 8.6858Q0.551838 7.47946 0.753965 6.55545Q0.956091 5.63144 1.34751 5.00581Q1.73893 4.38018 2.31964 4.06255Q2.90036 3.74493 3.65111 3.74493Q6.54505 3.74493 6.54505 8.46121ZM5.46704 8.56388Q5.46704 4.63685 3.59978 4.63685Q1.62985 4.63685 1.62985 8.63447Q1.62985 12.3626 3.56128 12.3626Q5.46704 12.3626 5.46704 8.56388Z" />
        </g>
        <g id="100" transform="translate(3.28536 229.9752)">
          <path d="M4.6457 13.1005L3.59336 13.1005L3.59336 5.15019Q3.47145 5.27211 3.23723 5.42931Q3.00302 5.58652 2.71106 5.74052Q2.4191 5.89453 2.09506 6.02928Q1.77101 6.16403 1.46301 6.24103L1.46301 5.17585Q1.80951 5.0796 2.19773 4.91598Q2.58594 4.75235 2.96132 4.55022Q3.33669 4.3481 3.67036 4.12672Q4.00403 3.90534 4.24787 3.69359L4.6457 3.69359L4.6457 13.1005ZM13.6291 8.46121Q13.6291 9.61622 13.4206 10.5081Q13.212 11.4001 12.8174 12.0129Q12.4228 12.6257 11.8485 12.9433Q11.2742 13.2609 10.5427 13.2609Q9.84966 13.2609 9.30745 12.9561Q8.76524 12.6513 8.39307 12.0674Q8.0209 11.4835 7.8284 10.6333Q7.6359 9.78306 7.6359 8.6858Q7.6359 7.47946 7.83802 6.55545Q8.04015 5.63144 8.43157 5.00581Q8.82299 4.38018 9.4037 4.06255Q9.98442 3.74493 10.7352 3.74493Q13.6291 3.74493 13.6291 8.46121ZM20.5046 10.5081Q20.7132 9.61622 20.7132 8.46121Q20.7132 3.74493 17.8192 3.74493Q17.0685 3.74493 16.4878 4.06255Q15.907 4.38018 15.5156 5.00581Q15.1242 5.63144 14.9221 6.55545Q14.72 7.47946 14.72 8.6858Q14.72 9.78306 14.9125 10.6333Q15.105 11.4835 15.4771 12.0674Q15.8493 12.6513 16.3915 12.9561Q16.9337 13.2609 17.6267 13.2609Q18.3582 13.2609 18.9325 12.9433Q19.5068 12.6257 19.9015 12.0129Q20.2961 11.4001 20.5046 10.5081ZM12.5511 8.56388Q12.5511 4.63685 10.6838 4.63685Q8.71391 4.63685 8.71391 8.63447Q8.71391 12.3626 10.6453 12.3626Q12.5511 12.3626 12.5511 8.56388ZM17.7679 4.63685Q19.6352 4.63685 19.6352 8.56388Q19.6352 12.3626 17.7294 12.3626Q15.798 12.3626 15.798 8.63447Q15.798 4.63685 17.7679 4.63685Z" />
        </g>
        <g id="200" transform="translate(0 183.9802)">
          <path d="M4.95371 6.31161Q4.95371 5.88811 4.82216 5.57369Q4.69062 5.25927 4.46283 5.05073Q4.23503 4.84218 3.92703 4.73952Q3.61903 4.63685 3.25969 4.63685Q2.95169 4.63685 2.65652 4.72027Q2.36135 4.80368 2.08223 4.95127Q1.8031 5.09885 1.54322 5.30419Q1.28334 5.50952 1.05876 5.75978L1.05876 4.63043Q1.50151 4.20051 2.05014 3.97272Q2.59877 3.74493 3.38803 3.74493Q3.9527 3.74493 4.43395 3.90855Q4.91521 4.07218 5.26813 4.3866Q5.62105 4.70102 5.82317 5.16302Q6.0253 5.62502 6.0253 6.22178Q6.0253 6.7672 5.90017 7.20995Q5.77505 7.65271 5.52159 8.04413Q5.26813 8.43555 4.88312 8.79488Q4.49812 9.15422 3.97837 9.52639Q3.33028 9.98839 2.90998 10.3156Q2.48969 10.6429 2.24264 10.9284Q1.9956 11.214 1.89614 11.4995Q1.79668 11.7851 1.79668 12.1572L6.37822 12.1572L6.37822 13.1005L0.699422 13.1005L0.699422 12.6449Q0.699422 12.0546 0.827757 11.6054Q0.956091 11.1562 1.25126 10.752Q1.54643 10.3477 2.02447 9.94348Q2.50252 9.53922 3.19553 9.0323Q3.69603 8.67297 4.03291 8.34571Q4.36979 8.01846 4.57512 7.69121Q4.78046 7.36396 4.86708 7.02708Q4.95371 6.6902 4.95371 6.31161ZM13.6291 8.46121Q13.6291 9.61622 13.4206 10.5081Q13.212 11.4001 12.8174 12.0129Q12.4228 12.6257 11.8485 12.9433Q11.2742 13.2609 10.5427 13.2609Q9.84966 13.2609 9.30745 12.9561Q8.76524 12.6513 8.39307 12.0674Q8.0209 11.4835 7.8284 10.6333Q7.6359 9.78306 7.6359 8.6858Q7.6359 7.47946 7.83802 6.55545Q8.04015 5.63144 8.43157 5.00581Q8.82299 4.38018 9.4037 4.06255Q9.98442 3.74493 10.7352 3.74493Q13.6291 3.74493 13.6291 8.46121ZM20.5046 10.5081Q20.7132 9.61622 20.7132 8.46121Q20.7132 3.74493 17.8192 3.74493Q17.0685 3.74493 16.4878 4.06255Q15.907 4.38018 15.5156 5.00581Q15.1242 5.63144 14.9221 6.55545Q14.72 7.47946 14.72 8.6858Q14.72 9.78306 14.9125 10.6333Q15.105 11.4835 15.4771 12.0674Q15.8493 12.6513 16.3915 12.9561Q16.9337 13.2609 17.6267 13.2609Q18.3582 13.2609 18.9325 12.9433Q19.5068 12.6257 19.9015 12.0129Q20.2961 11.4001 20.5046 10.5081ZM12.5511 8.56388Q12.5511 4.63685 10.6838 4.63685Q8.71391 4.63685 8.71391 8.63447Q8.71391 12.3626 10.6453 12.3626Q12.5511 12.3626 12.5511 8.56388ZM17.7679 4.63685Q19.6352 4.63685 19.6352 8.56388Q19.6352 12.3626 17.7294 12.3626Q15.798 12.3626 15.798 8.63447Q15.798 4.63685 17.7679 4.63685Z" />
        </g>
        <g id="300" transform="translate(0 137.9851)">
          <path d="M6.11513 10.4953Q6.11513 11.1177 5.88092 11.6279Q5.64671 12.138 5.22 12.5005Q4.79329 12.8631 4.19653 13.062Q3.59978 13.2609 2.88111 13.2609Q1.56568 13.2609 0.789257 12.7604L0.789257 11.6311Q1.71968 12.3626 2.91961 12.3626Q3.40086 12.3626 3.78907 12.2407Q4.17728 12.1187 4.45641 11.8877Q4.73554 11.6567 4.88633 11.3295Q5.03712 11.0022 5.03712 10.5916Q5.03712 8.78847 2.47044 8.78847L1.70685 8.78847L1.70685 7.89654L2.43194 7.89654Q4.70345 7.89654 4.70346 6.20253Q4.70346 4.63685 2.97094 4.63685Q1.9956 4.63685 1.14218 5.29135L1.14218 4.2711Q2.02127 3.74493 3.23403 3.74493Q3.81153 3.74493 4.27995 3.90534Q4.74837 4.06576 5.08204 4.35451Q5.41571 4.64327 5.59859 5.04752Q5.78146 5.45177 5.78146 5.93944Q5.78146 7.75537 3.94628 8.27513L3.94628 8.3008Q4.4147 8.35213 4.81254 8.52859Q5.21038 8.70505 5.49913 8.98738Q5.78788 9.26972 5.95151 9.65152Q6.11513 10.0333 6.11513 10.4953ZM13.6291 8.46121Q13.6291 9.61622 13.4206 10.5081Q13.212 11.4001 12.8174 12.0129Q12.4228 12.6257 11.8485 12.9433Q11.2742 13.2609 10.5427 13.2609Q9.84966 13.2609 9.30745 12.9561Q8.76524 12.6513 8.39307 12.0674Q8.0209 11.4835 7.8284 10.6333Q7.6359 9.78306 7.6359 8.6858Q7.6359 7.47946 7.83802 6.55545Q8.04015 5.63144 8.43157 5.00581Q8.82299 4.38018 9.4037 4.06255Q9.98442 3.74493 10.7352 3.74493Q13.6291 3.74493 13.6291 8.46121ZM20.5046 10.5081Q20.7132 9.61622 20.7132 8.46121Q20.7132 3.74493 17.8192 3.74493Q17.0685 3.74493 16.4878 4.06255Q15.907 4.38018 15.5156 5.00581Q15.1242 5.63144 14.9221 6.55545Q14.72 7.47946 14.72 8.6858Q14.72 9.78306 14.9125 10.6333Q15.105 11.4835 15.4771 12.0674Q15.8493 12.6513 16.3915 12.9561Q16.9337 13.2609 17.6267 13.2609Q18.3582 13.2609 18.9325 12.9433Q19.5068 12.6257 19.9015 12.0129Q20.2961 11.4001 20.5046 10.5081ZM12.5511 8.56388Q12.5511 4.63685 10.6838 4.63685Q8.71391 4.63685 8.71391 8.63447Q8.71391 12.3626 10.6453 12.3626Q12.5511 12.3626 12.5511 8.56388ZM17.7679 4.63685Q19.6352 4.63685 19.6352 8.56388Q19.6352 12.3626 17.7294 12.3626Q15.798 12.3626 15.798 8.63447Q15.798 4.63685 17.7679 4.63685Z" />
        </g>
        <g id="400" transform="translate(0 91.99009)">
          <path d="M13.6291 8.46121Q13.6291 9.61622 13.4206 10.5081Q13.212 11.4001 12.8174 12.0129Q12.4228 12.6257 11.8485 12.9433Q11.2742 13.2609 10.5427 13.2609Q9.84966 13.2609 9.30745 12.9561Q8.76524 12.6513 8.39307 12.0674Q8.0209 11.4835 7.8284 10.6333Q7.6359 9.78306 7.6359 8.6858Q7.6359 7.47946 7.83802 6.55545Q8.04015 5.63144 8.43157 5.00581Q8.82299 4.38018 9.4037 4.06255Q9.98442 3.74493 10.7352 3.74493Q13.6291 3.74493 13.6291 8.46121ZM20.5046 10.5081Q20.7132 9.61622 20.7132 8.46121Q20.7132 3.74493 17.8192 3.74493Q17.0685 3.74493 16.4878 4.06255Q15.907 4.38018 15.5156 5.00581Q15.1242 5.63144 14.9221 6.55545Q14.72 7.47946 14.72 8.6858Q14.72 9.78306 14.9125 10.6333Q15.105 11.4835 15.4771 12.0674Q15.8493 12.6513 16.3915 12.9561Q16.9337 13.2609 17.6267 13.2609Q18.3582 13.2609 18.9325 12.9433Q19.5068 12.6257 19.9015 12.0129Q20.2961 11.4001 20.5046 10.5081ZM5.45421 3.89893L5.45421 9.97556L6.63489 9.97556L6.63489 10.9381L5.45421 10.9381L5.45421 13.1005L4.4147 13.1005L4.4147 10.9381L0.0898341 10.9381L0.0898341 10.0269Q0.693006 9.34672 1.30901 8.57351Q1.92502 7.80029 2.48648 7.00462Q3.04794 6.20895 3.52599 5.41648Q4.00403 4.62402 4.33129 3.89893L5.45421 3.89893ZM12.5511 8.56388Q12.5511 4.63685 10.6838 4.63685Q8.71391 4.63685 8.71391 8.63447Q8.71391 12.3626 10.6453 12.3626Q12.5511 12.3626 12.5511 8.56388ZM17.7679 4.63685Q19.6352 4.63685 19.6352 8.56388Q19.6352 12.3626 17.7294 12.3626Q15.798 12.3626 15.798 8.63447Q15.798 4.63685 17.7679 4.63685ZM1.27693 9.97556L4.4147 9.97556L4.4147 5.47102Q3.93345 6.31161 3.50353 6.97254Q3.07361 7.63346 2.6854 8.17246Q2.29719 8.71147 1.94427 9.1478Q1.59135 9.58414 1.27693 9.97556Z" />
        </g>
        <g id="500" transform="translate(0 45.99504)">
          <path d="M13.6291 8.46121Q13.6291 9.61622 13.4206 10.5081Q13.212 11.4001 12.8174 12.0129Q12.4228 12.6257 11.8485 12.9433Q11.2742 13.2609 10.5427 13.2609Q9.84966 13.2609 9.30745 12.9561Q8.76524 12.6513 8.39307 12.0674Q8.0209 11.4835 7.8284 10.6333Q7.6359 9.78306 7.6359 8.6858Q7.6359 7.47946 7.83802 6.55545Q8.04015 5.63144 8.43157 5.00581Q8.82299 4.38018 9.4037 4.06255Q9.98442 3.74493 10.7352 3.74493Q13.6291 3.74493 13.6291 8.46121ZM20.5046 10.5081Q20.7132 9.61622 20.7132 8.46121Q20.7132 3.74493 17.8192 3.74493Q17.0685 3.74493 16.4878 4.06255Q15.907 4.38018 15.5156 5.00581Q15.1242 5.63144 14.9221 6.55545Q14.72 7.47946 14.72 8.6858Q14.72 9.78306 14.9125 10.6333Q15.105 11.4835 15.4771 12.0674Q15.8493 12.6513 16.3915 12.9561Q16.9337 13.2609 17.6267 13.2609Q18.3582 13.2609 18.9325 12.9433Q19.5068 12.6257 19.9015 12.0129Q20.2961 11.4001 20.5046 10.5081ZM6.2178 10.29Q6.2178 10.9637 5.9868 11.5092Q5.7558 12.0546 5.32909 12.446Q4.90237 12.8374 4.2992 13.0492Q3.69603 13.2609 2.95811 13.2609Q1.67476 13.2609 1.05234 12.8759L1.05234 11.7594Q1.98918 12.3626 2.97094 12.3626Q3.47145 12.3626 3.87249 12.215Q4.27353 12.0674 4.55587 11.8043Q4.83821 11.5412 4.989 11.1691Q5.13979 10.7969 5.13979 10.3541Q5.13979 9.4558 4.53662 8.94568Q3.93345 8.43555 2.78486 8.43555Q2.59877 8.43555 2.39344 8.44196Q2.1881 8.44838 1.98277 8.45801Q1.77743 8.46763 1.58172 8.48046Q1.38601 8.4933 1.22559 8.51255L1.54001 3.89893L5.7943 3.89893L5.7943 4.8486L2.45119 4.8486L2.2651 7.55004Q2.47044 7.53721 2.70144 7.52758Q2.93244 7.51796 3.11211 7.51796Q3.84361 7.51796 4.42112 7.71046Q4.99862 7.90296 5.39967 8.25909Q5.80071 8.61522 6.00926 9.13176Q6.2178 9.64831 6.2178 10.29ZM12.5511 8.56388Q12.5511 4.63685 10.6838 4.63685Q8.71391 4.63685 8.71391 8.63447Q8.71391 12.3626 10.6453 12.3626Q12.5511 12.3626 12.5511 8.56388ZM17.7679 4.63685Q19.6352 4.63685 19.6352 8.56388Q19.6352 12.3626 17.7294 12.3626Q15.798 12.3626 15.798 8.63447Q15.798 4.63685 17.7679 4.63685Z" />
        </g>
        <g id="600">
          <path d="M6.55789 10.1809Q6.55789 10.8547 6.33972 11.4193Q6.12155 11.984 5.73655 12.3947Q5.35154 12.8053 4.81896 13.0331Q4.28637 13.2609 3.66395 13.2609Q2.97094 13.2609 2.42231 12.9722Q1.87368 12.6834 1.49189 12.1412Q1.11009 11.599 0.911174 10.8161Q0.712256 10.0333 0.712256 9.05155Q0.712256 7.85163 0.97855 6.87308Q1.24484 5.89453 1.73572 5.19831Q2.2266 4.5021 2.91961 4.12351Q3.61261 3.74493 4.46604 3.74493Q5.41571 3.74493 5.99322 4.00801L5.99322 5.0026Q5.28096 4.63685 4.4917 4.63685Q3.8757 4.63685 3.38161 4.91277Q2.88752 5.18869 2.5346 5.6924Q2.18168 6.19611 1.99239 6.90837Q1.8031 7.62062 1.8031 8.4933L1.82877 8.4933Q2.46402 7.34471 3.92703 7.3447Q4.5302 7.34471 5.01467 7.55004Q5.49913 7.75537 5.84242 8.13075Q6.18572 8.50613 6.3718 9.02588Q6.55789 9.54564 6.55789 10.1809ZM13.6291 8.46121Q13.6291 9.61622 13.4206 10.5081Q13.212 11.4001 12.8174 12.0129Q12.4228 12.6257 11.8485 12.9433Q11.2742 13.2609 10.5427 13.2609Q9.84966 13.2609 9.30745 12.9561Q8.76524 12.6513 8.39307 12.0674Q8.0209 11.4835 7.8284 10.6333Q7.6359 9.78306 7.6359 8.6858Q7.6359 7.47946 7.83802 6.55545Q8.04015 5.63144 8.43157 5.00581Q8.82299 4.38018 9.4037 4.06255Q9.98442 3.74493 10.7352 3.74493Q13.6291 3.74493 13.6291 8.46121ZM20.5046 10.5081Q20.7132 9.61622 20.7132 8.46121Q20.7132 3.74493 17.8192 3.74493Q17.0685 3.74493 16.4878 4.06255Q15.907 4.38018 15.5156 5.00581Q15.1242 5.63144 14.9221 6.55545Q14.72 7.47946 14.72 8.6858Q14.72 9.78306 14.9125 10.6333Q15.105 11.4835 15.4771 12.0674Q15.8493 12.6513 16.3915 12.9561Q16.9337 13.2609 17.6267 13.2609Q18.3582 13.2609 18.9325 12.9433Q19.5068 12.6257 19.9015 12.0129Q20.2961 11.4001 20.5046 10.5081ZM12.5511 8.56388Q12.5511 4.63685 10.6838 4.63685Q8.71391 4.63685 8.71391 8.63447Q8.71391 12.3626 10.6453 12.3626Q12.5511 12.3626 12.5511 8.56388ZM17.7679 4.63685Q19.6352 4.63685 19.6352 8.56388Q19.6352 12.3626 17.7294 12.3626Q15.798 12.3626 15.798 8.63447Q15.798 4.63685 17.7679 4.63685ZM5.47988 10.3156Q5.47988 9.83439 5.35796 9.44939Q5.23604 9.06439 5.00825 8.79488Q4.78046 8.52538 4.44679 8.381Q4.11312 8.23663 3.68961 8.23663Q3.29819 8.23663 2.96452 8.38421Q2.63085 8.5318 2.38702 8.78526Q2.14318 9.03872 2.00522 9.3756Q1.86727 9.71247 1.86727 10.0911Q1.86727 10.5659 2.00202 10.9798Q2.13677 11.3937 2.3806 11.7017Q2.62444 12.0097 2.96132 12.1861Q3.29819 12.3626 3.70886 12.3626Q4.1067 12.3626 4.43395 12.2118Q4.76121 12.061 4.99221 11.7915Q5.22321 11.522 5.35154 11.1466Q5.47988 10.7712 5.47988 10.3156Z" />
        </g>
      </g>
      <g id="Group-8" transform="translate(177.4095 35.04384)">
        <g filter="url(#filter_3)">
          <path d="M14.2366 3.89065e-15L77.7535 3.89065e-15Q77.9218 3.89065e-15 78.089 0.00765982Q78.2562 0.0153196 78.4219 0.0306236Q78.5876 0.0459277 78.7515 0.0688446Q78.9154 0.0917616 79.0771 0.122245Q79.2389 0.152728 79.3982 0.190715Q79.5574 0.228703 79.7139 0.274116Q79.8704 0.31953 80.0238 0.372278Q80.1771 0.425025 80.3271 0.484999Q80.477 0.544973 80.6232 0.612051Q80.7694 0.679129 80.9116 0.753174Q81.0537 0.827219 81.1916 0.90808Q81.3294 0.988941 81.4626 1.07645Q81.5959 1.16396 81.7242 1.25795Q81.8526 1.35193 81.9758 1.4522Q82.099 1.55246 82.2169 1.65881Q82.3347 1.76515 82.4469 1.87735Q82.5591 1.98955 82.6655 2.10738Q82.7718 2.22521 82.8721 2.34843Q82.9723 2.47166 83.0663 2.60002Q83.1603 2.72838 83.2478 2.86161Q83.3353 2.99485 83.4162 3.13269Q83.497 3.27053 83.5711 3.4127Q83.6451 3.55486 83.7122 3.70106Q83.7793 3.84726 83.8393 3.9972Q83.8992 4.14713 83.952 4.3005Q84.0047 4.45386 84.0501 4.61034Q84.0956 4.76682 84.1335 4.9261Q84.1715 5.08538 84.202 5.24713Q84.2325 5.40888 84.2554 5.57278Q84.2783 5.73667 84.2936 5.90237Q84.3089 6.06808 84.3166 6.23525Q84.3243 6.40242 84.3242 6.57072L84.3242 48.1853Q84.3243 48.3536 84.3166 48.5208Q84.3089 48.6879 84.2936 48.8536Q84.2783 49.0193 84.2554 49.1832Q84.2325 49.3471 84.202 49.5089Q84.1715 49.6706 84.1335 49.8299Q84.0956 49.9892 84.0501 50.1457Q84.0047 50.3021 83.952 50.4555Q83.8992 50.6089 83.8393 50.7588Q83.7793 50.9087 83.7122 51.0549Q83.6451 51.2011 83.5711 51.3433Q83.497 51.4855 83.4162 51.6233Q83.3353 51.7612 83.2478 51.8944Q83.1603 52.0276 83.0663 52.156Q82.9723 52.2844 82.8721 52.4076Q82.7718 52.5308 82.6655 52.6486Q82.5591 52.7665 82.4469 52.8787Q82.3347 52.9909 82.2169 53.0972Q82.099 53.2035 81.9758 53.3038Q81.8526 53.4041 81.7242 53.4981Q81.5959 53.592 81.4626 53.6796Q81.3294 53.7671 81.1916 53.8479Q81.0537 53.9288 80.9116 54.0028Q80.7694 54.0769 80.6232 54.144Q80.477 54.211 80.3271 54.271Q80.1771 54.331 80.0238 54.3837Q79.8704 54.4365 79.7139 54.4819Q79.5574 54.5273 79.3982 54.5653Q79.2389 54.6033 79.0771 54.6338Q78.9154 54.6642 78.7515 54.6872Q78.5876 54.7101 78.4219 54.7254Q78.2562 54.7407 78.089 54.7483Q77.9218 54.756 77.7535 54.756L14.2366 54.756Q14.0683 54.756 13.9011 54.7484Q13.7339 54.7407 13.5682 54.7254Q13.4025 54.7101 13.2386 54.6872Q13.0747 54.6642 12.913 54.6338Q12.7512 54.6033 12.5919 54.5653Q12.4327 54.5273 12.2762 54.4819Q12.1197 54.4365 11.9663 54.3837Q11.813 54.331 11.663 54.271Q11.5131 54.211 11.3669 54.144Q11.2207 54.0769 11.0785 54.0028Q10.9364 53.9288 10.7985 53.8479Q10.6607 53.7671 10.5275 53.6796Q10.3942 53.592 10.2659 53.4981Q10.1375 53.4041 10.0143 53.3038Q9.89105 53.2035 9.77322 53.0972Q9.65539 52.9909 9.54319 52.8787Q9.43099 52.7665 9.32465 52.6486Q9.21831 52.5308 9.11804 52.4076Q9.01778 52.2844 8.92379 52.156Q8.82981 52.0276 8.74229 51.8944Q8.65478 51.7612 8.57392 51.6233Q8.49306 51.4855 8.41902 51.3433Q8.34497 51.2011 8.27789 51.055Q8.21082 50.9087 8.15084 50.7588Q8.09087 50.6089 8.03812 50.4555Q7.98537 50.3022 7.93996 50.1457Q7.89455 49.9892 7.85656 49.8299Q7.81857 49.6706 7.78809 49.5089Q7.7576 49.3471 7.73469 49.1832Q7.71177 49.0193 7.69646 48.8536Q7.68116 48.6879 7.6735 48.5208Q7.66584 48.3536 7.66584 48.1853L7.66584 32.8231L0 27.3434L7.66584 21.8664L7.66584 6.57072Q7.66584 6.40242 7.6735 6.23525Q7.68116 6.06808 7.69647 5.90237Q7.71177 5.73667 7.73469 5.57278Q7.7576 5.40888 7.78809 5.24713Q7.81857 5.08538 7.85656 4.9261Q7.89455 4.76682 7.93996 4.61034Q7.98537 4.45386 8.03812 4.3005Q8.09087 4.14713 8.15084 3.9972Q8.21082 3.84726 8.27789 3.70106Q8.34497 3.55486 8.41902 3.4127Q8.49306 3.27053 8.57392 3.13269Q8.65478 2.99485 8.74229 2.86161Q8.82981 2.72838 8.92379 2.60002Q9.01778 2.47166 9.11804 2.34843Q9.21831 2.22521 9.32465 2.10738Q9.43099 1.98955 9.54319 1.87735Q9.65539 1.76515 9.77322 1.65881Q9.89105 1.55246 10.0143 1.4522Q10.1375 1.35193 10.2659 1.25795Q10.3942 1.16396 10.5275 1.07645Q10.6607 0.988941 10.7985 0.90808Q10.9364 0.827219 11.0785 0.753174Q11.2207 0.679129 11.3669 0.612051Q11.5131 0.544973 11.663 0.484999Q11.813 0.425025 11.9663 0.372278Q12.1197 0.31953 12.2762 0.274116Q12.4327 0.228703 12.5919 0.190715Q12.7512 0.152728 12.913 0.122245Q13.0747 0.0917616 13.2386 0.0688446Q13.4025 0.0459277 13.5682 0.0306236Q13.7339 0.0153196 13.9011 0.00765982Q14.0683 3.89065e-15 14.2366 3.89065e-15Z" id="Rectangle" fill="#FFFFFF" stroke="none" />
        </g>
        <g id="Total" fill="#9BA2B6" transform="translate(18.61704 13.14144)">
          <path d="M26.7898 13.1005L27.8421 13.1005L27.8421 3.37276L26.7898 3.37276L26.7898 13.1005ZM6.64772 4.87427L3.9912 4.87427L3.9912 13.1005L2.91319 13.1005L2.91319 4.87427L0.263085 4.87427L0.263085 3.89893L6.64772 3.89893L6.64772 4.87427ZM17.7166 13.2417Q18.3262 13.2417 18.6983 13.0363L18.6983 12.138Q18.4096 12.3562 18.0117 12.3562Q17.492 12.3562 17.2674 12.0738Q17.0428 11.7915 17.0428 11.1306L17.0428 7.42812L18.6983 7.42812L18.6983 6.52978L17.0428 6.52978L17.0428 4.58552L15.9905 4.9256L15.9905 6.52978L14.8611 6.52978L14.8611 7.42812L15.9905 7.42812L15.9905 11.3167Q15.9905 13.2417 17.7166 13.2417ZM10.6967 13.2545Q9.24008 13.2545 8.37061 12.3337Q7.50114 11.4129 7.50114 9.89214Q7.50114 8.23663 8.4059 7.3062Q9.31066 6.37578 10.8507 6.37578Q12.3201 6.37578 13.1446 7.28054Q13.9692 8.1853 13.9692 9.78947Q13.9692 11.3616 13.0805 12.308Q12.1918 13.2545 10.6967 13.2545ZM24.807 13.1005L23.7547 13.1005L23.7547 12.0738L23.729 12.0738Q23.0424 13.2545 21.7078 13.2545Q20.726 13.2545 20.171 12.7347Q19.6159 12.215 19.6159 11.3552Q19.6159 9.51356 21.7848 9.21197L23.7547 8.93605Q23.7547 7.26129 22.4008 7.26129Q21.2137 7.26129 20.2576 8.06979L20.2576 6.99179Q21.2265 6.37578 22.4906 6.37578Q24.807 6.37578 24.807 8.82697L24.807 13.1005ZM10.7737 7.26129Q9.75983 7.26129 9.16949 7.95108Q8.57915 8.64088 8.57915 9.85364Q8.57915 11.0215 9.17591 11.6952Q9.77266 12.369 10.7737 12.369Q11.7939 12.369 12.3426 11.7081Q12.8912 11.0472 12.8912 9.82798Q12.8912 8.59596 12.3426 7.92863Q11.7939 7.26129 10.7737 7.26129ZM23.7547 9.77664L22.1698 9.99481Q21.4383 10.0975 21.0661 10.3574Q20.6939 10.6172 20.6939 11.2782Q20.6939 11.7594 21.0372 12.0642Q21.3805 12.369 21.9516 12.369Q22.7344 12.369 23.2446 11.8204Q23.7547 11.2717 23.7547 10.4311L23.7547 9.77664Z" />
        </g>
        <g id="2,300" fill="#161A2E" transform="translate(18.61704 30.66336)">
          <path d="M5.77933 7.44597Q5.77933 6.95188 5.62586 6.58506Q5.47239 6.21824 5.20663 5.97494Q4.94087 5.73164 4.58154 5.61186Q4.2222 5.49208 3.80298 5.49208Q3.44364 5.49208 3.09928 5.5894Q2.75491 5.68672 2.42926 5.8589Q2.10361 6.03108 1.80042 6.27064Q1.49723 6.5102 1.23522 6.80216L1.23522 5.48459Q1.75176 4.98302 2.39183 4.71726Q3.0319 4.4515 3.9527 4.4515Q4.61148 4.4515 5.17295 4.6424Q5.73441 4.8333 6.14615 5.20012Q6.55789 5.56694 6.7937 6.10595Q7.02952 6.64495 7.02952 7.34116Q7.02952 7.97749 6.88354 8.49403Q6.73755 9.01058 6.44185 9.46724Q6.14615 9.92389 5.69698 10.3431Q5.24781 10.7623 4.64143 11.1965Q3.88532 11.7355 3.39498 12.1173Q2.90463 12.4991 2.61642 12.8323Q2.3282 13.1654 2.21216 13.4985Q2.09613 13.8317 2.09613 14.2659L7.44126 14.2659L7.44126 15.3663L0.815993 15.3663L0.815993 14.8348Q0.815993 14.1461 0.965716 13.6221Q1.11544 13.098 1.4598 12.6264Q1.80417 12.1548 2.36189 11.6831Q2.91961 11.2115 3.72811 10.6201Q4.31204 10.2009 4.70506 9.81909Q5.09808 9.43729 5.33764 9.0555Q5.5772 8.6737 5.67826 8.28068Q5.77933 7.88766 5.77933 7.44597ZM18.4497 13.6483Q18.7229 13.0531 18.7229 12.327Q18.7229 11.788 18.532 11.3425Q18.3411 10.8971 18.0042 10.5677Q17.6674 10.2383 17.2032 10.0324Q16.7391 9.82657 16.1926 9.76668L16.1926 9.73674Q18.3336 9.13036 18.3336 7.01177Q18.3336 6.44282 18.1203 5.97119Q17.9069 5.49957 17.5176 5.16269Q17.1284 4.82581 16.5819 4.63866Q16.0354 4.4515 15.3616 4.4515Q13.9467 4.4515 12.9211 5.06537L12.9211 6.25567Q13.9168 5.49208 15.0547 5.49208Q17.076 5.49208 17.076 7.31871Q17.076 9.29506 14.4259 9.29506L13.5799 9.29506L13.5799 10.3356L14.4708 10.3356Q17.4652 10.3356 17.4652 12.4392Q17.4652 12.9184 17.2893 13.3002Q17.1134 13.682 16.7877 13.9515Q16.4621 14.221 16.0092 14.3632Q15.5563 14.5054 14.9948 14.5054Q13.5949 14.5054 12.5094 13.652L12.5094 14.9696Q13.4152 15.5535 14.9499 15.5535Q15.7883 15.5535 16.4846 15.3214Q17.1808 15.0894 17.6786 14.6664Q18.1764 14.2434 18.4497 13.6483ZM27.4892 9.95384Q27.4892 11.3013 27.2459 12.3419Q27.0026 13.3825 26.5422 14.0974Q26.0818 14.8124 25.4118 15.1829Q24.7418 15.5535 23.8884 15.5535Q23.0799 15.5535 22.4473 15.1979Q21.8147 14.8423 21.3805 14.1611Q20.9463 13.4798 20.7217 12.4879Q20.4971 11.496 20.4971 10.2159Q20.4971 8.80845 20.733 7.73044Q20.9688 6.65244 21.4254 5.92253Q21.8821 5.19263 22.5596 4.82207Q23.2371 4.4515 24.113 4.4515Q27.4892 4.4515 27.4892 9.95384ZM35.5107 12.3419Q35.754 11.3013 35.754 9.95384Q35.754 4.4515 32.3777 4.4515Q31.5018 4.4515 30.8243 4.82207Q30.1468 5.19263 29.6902 5.92253Q29.2335 6.65244 28.9977 7.73044Q28.7619 8.80845 28.7619 10.2159Q28.7619 11.496 28.9865 12.4879Q29.211 13.4798 29.6452 14.1611Q30.0794 14.8423 30.712 15.1979Q31.3446 15.5535 32.1531 15.5535Q33.0065 15.5535 33.6765 15.1829Q34.3466 14.8124 34.807 14.0974Q35.2674 13.3825 35.5107 12.3419ZM26.2315 10.0736Q26.2315 5.49208 24.0531 5.49208Q21.7548 5.49208 21.7548 10.156Q21.7548 14.5054 24.0082 14.5054Q26.2315 14.5054 26.2315 10.0736ZM32.3178 5.49208Q34.4963 5.49208 34.4963 10.0736Q34.4963 14.5054 32.2729 14.5054Q30.0196 14.5054 30.0196 10.156Q30.0196 5.49208 32.3178 5.49208ZM10.6304 13.6595L9.43258 17.3427L8.55669 17.3427L9.43258 13.6595L10.6304 13.6595Z" />
        </g>
      </g>
      <path d="M0 162.425L43.9271 135.356L93.8903 69.856L133.208 87.3586L188.464 0L231.322 102.574L264.679 128.4" transform="translate(111.5594 121.0847)" id="Path-3" fill="url(#gradient_3)" fill-opacity="0.43" stroke="#42077F" stroke-width="1.69000018" />
      <path d="M4.38048 8.76096C6.79975 8.76096 8.76096 6.79975 8.76096 4.38048C8.76096 1.96121 6.79975 0 4.38048 0C1.96121 0 0 1.96121 0 4.38048C0 6.79975 1.96121 8.76096 4.38048 8.76096Z" transform="translate(107.3218 279.2556)" id="Oval-Copy" fill="url(#gradient_4)" stroke="none" />
      <path d="M4.38048 8.76096C6.79975 8.76096 8.76096 6.79975 8.76096 4.38048C8.76096 1.96121 6.79975 0 4.38048 0C1.96121 0 0 1.96121 0 4.38048C0 6.79975 1.96121 8.76096 4.38048 8.76096Z" transform="translate(151.1266 251.8776)" id="Oval-Copy-7" fill="url(#gradient_4)" stroke="none" />
      <path d="M4.38048 8.76096C6.79975 8.76096 8.76096 6.79975 8.76096 4.38048C8.76096 1.96121 6.79975 0 4.38048 0C1.96121 0 0 1.96121 0 4.38048C0 6.79975 1.96121 8.76096 4.38048 8.76096Z" transform="translate(200.407 187.2655)" id="Oval-Copy-8" fill="url(#gradient_4)" stroke="none" />
      <path d="M4.38048 8.76096C6.79975 8.76096 8.76096 6.79975 8.76096 4.38048C8.76096 1.96121 6.79975 0 4.38048 0C1.96121 0 0 1.96121 0 4.38048C0 6.79975 1.96121 8.76096 4.38048 8.76096Z" transform="translate(239.8313 203.6923)" id="Oval-Copy-9" fill="url(#gradient_4)" stroke="none" />
      <path d="M4.38048 8.76096C6.79975 8.76096 8.76096 6.79975 8.76096 4.38048C8.76096 1.96121 6.79975 0 4.38048 0C1.96121 0 0 1.96121 0 4.38048C0 6.79975 1.96121 8.76096 4.38048 8.76096Z" transform="translate(295.6824 114.9876)" id="Oval-Copy-10" fill="url(#gradient_4)" stroke="none" />
      <path d="M4.38048 8.76096C6.79975 8.76096 8.76096 6.79975 8.76096 4.38048C8.76096 1.96121 6.79975 0 4.38048 0C1.96121 0 0 1.96121 0 4.38048C0 6.79975 1.96121 8.76096 4.38048 8.76096Z" transform="translate(338.3921 219.024)" id="Oval-Copy-11" fill="url(#gradient_4)" stroke="none" />
    </g>
  </g>
</svg>